<svg id="Calque_2" data-name="Calque 2" xmlns="http://www.w3.org/2000/svg" viewBox="0 0 1764 1218.26"><defs><style>.cls-1,.cls-2,.cls-3{fill:none;}.cls-1,.cls-2,.cls-3,.cls-4{stroke:#000;stroke-miterlimit:10;}.cls-1{stroke-width:3px;}.cls-2,.cls-4{stroke-width:2px;}.cls-4{fill:#fff;}</style></defs><rect class="cls-1" x="1.5" y="231.76" width="1761" height="985" rx="18.57"/><rect class="cls-2" x="305" y="284.26" width="159" height="159" rx="11.31"/><rect class="cls-2" x="692" y="284.76" width="159" height="159" rx="11.31"/><rect class="cls-2" x="498.5" y="284.76" width="159" height="159" rx="11.31"/><rect class="cls-2" x="885.5" y="284.76" width="159" height="159" rx="11.31"/><rect class="cls-2" x="305" y="477.26" width="159" height="159" rx="11.31"/><rect class="cls-2" x="692" y="477.76" width="159" height="159" rx="11.31"/><rect class="cls-2" x="498.5" y="477.76" width="159" height="159" rx="11.31"/><rect class="cls-2" x="885.5" y="477.76" width="159" height="159" rx="11.31"/><circle class="cls-2" cx="1145.5" cy="328.76" r="43"/><circle class="cls-3" cx="1145.5" cy="328.76" r="33"/><circle class="cls-2" cx="1313.17" cy="328.76" r="43"/><circle class="cls-3" cx="1313.17" cy="328.76" r="33"/><circle class="cls-2" cx="1648.5" cy="328.76" r="43"/><circle class="cls-3" cx="1648.5" cy="328.76" r="33"/><circle class="cls-2" cx="1480.83" cy="328.76" r="43"/><circle class="cls-3" cx="1480.83" cy="328.76" r="33"/><circle class="cls-2" cx="1145.5" cy="494.76" r="43"/><circle class="cls-3" cx="1145.5" cy="494.76" r="33"/><circle class="cls-2" cx="1313.17" cy="494.76" r="43"/><circle class="cls-3" cx="1313.17" cy="494.76" r="33"/><path class="cls-2" d="M1350.67,634c0,14.91,19.25,27,43,27s43-12.09,43-27" transform="translate(-80.5 -106.24)"/><circle class="cls-2" cx="1648.5" cy="494.76" r="43"/><circle class="cls-3" cx="1648.5" cy="494.76" r="33"/><circle class="cls-2" cx="1480.83" cy="494.76" r="43"/><circle class="cls-3" cx="1480.83" cy="494.76" r="33"/><rect class="cls-3" x="59" y="740.33" width="108" height="455" rx="16.88"/><rect class="cls-3" x="168.75" y="740.33" width="108" height="455" rx="16.88"/><rect class="cls-3" x="278.5" y="740.33" width="108" height="455" rx="16.88"/><rect class="cls-3" x="388.25" y="740.33" width="108" height="455" rx="16.88"/><rect class="cls-3" x="607.75" y="740.33" width="108" height="455" rx="16.88"/><rect class="cls-3" x="717.5" y="740.33" width="108" height="455" rx="16.88"/><rect class="cls-3" x="498" y="740.33" width="108" height="455" rx="16.88"/><rect class="cls-3" x="937" y="740.33" width="108" height="455" rx="16.88"/><rect class="cls-3" x="1046.75" y="740.33" width="108" height="455" rx="16.88"/><rect class="cls-3" x="827.25" y="740.33" width="108" height="455" rx="16.88"/><rect class="cls-3" x="1266.25" y="740.33" width="108" height="455" rx="16.88"/><rect class="cls-3" x="1376" y="740.33" width="108" height="455" rx="16.88"/><rect class="cls-3" x="1156.5" y="740.33" width="108" height="455" rx="16.88"/><rect class="cls-3" x="1485.75" y="740.33" width="108" height="455" rx="16.88"/><rect class="cls-3" x="1595.5" y="740.33" width="108" height="455" rx="16.88"/><rect class="cls-4" x="131.5" y="740.76" width="54" height="272" rx="9.34"/><rect class="cls-4" x="259.5" y="740.76" width="54" height="272" rx="9.34"/><rect class="cls-4" x="454.5" y="740.76" width="54" height="272" rx="9.34"/><rect class="cls-4" x="580.5" y="740.76" width="54" height="272" rx="9.34"/><rect class="cls-4" x="705.5" y="740.76" width="54" height="272" rx="9.34"/><rect class="cls-4" x="1025.5" y="740.76" width="54" height="272" rx="9.34"/><rect class="cls-4" x="1225.5" y="740.76" width="54" height="272" rx="9.34"/><rect class="cls-4" x="1348.5" y="740.76" width="54" height="272" rx="9.34"/><rect class="cls-4" x="1472.5" y="740.76" width="54" height="272" rx="9.34"/><rect class="cls-4" x="901.5" y="740.76" width="54" height="272" rx="9.34"/><rect class="cls-3" x="890" y="289.26" width="150" height="150" rx="9.54"/><rect class="cls-3" x="696" y="289.26" width="150" height="150" rx="9.54"/><rect class="cls-3" x="503" y="289.26" width="150" height="150" rx="9.54"/><rect class="cls-3" x="309" y="289.26" width="150" height="150" rx="9.54"/><rect class="cls-3" x="309" y="482.26" width="150" height="150" rx="9.54"/><rect class="cls-3" x="503" y="482.26" width="150" height="150" rx="9.54"/><rect class="cls-3" x="696" y="482.26" width="150" height="150" rx="9.54"/><rect class="cls-3" x="890" y="482.26" width="150" height="150" rx="9.54"/><line class="cls-1" x1="388" y1="309.26" x2="388" y2="6.26"/><line class="cls-1" x1="578.12" y1="309.26" x2="578.12" y2="6.26"/><path d="M961.12,114.61c0,2.45-.56,4.26-1.68,5.41a6.69,6.69,0,0,1-5,1.72h-1.7v9.84h-1.59V107.77h3.25q3.5,0,5.1,1.65C960.59,110.51,961.12,112.24,961.12,114.61Zm-8.37,5.67h1.6c1.87,0,3.19-.44,4-1.32a6.5,6.5,0,0,0,1.18-4.35,5.79,5.79,0,0,0-1.22-4.13,5,5,0,0,0-3.75-1.24h-1.78Z" transform="translate(-80.5 -106.24)"/><path d="M971.43,131.58l-.19-2.48h-.07q-1.27,2.81-3.84,2.8a3.34,3.34,0,0,1-2.78-1.37,5.94,5.94,0,0,1-1-3.69,5.33,5.33,0,0,1,1.52-4,6.26,6.26,0,0,1,4.25-1.6l1.9-.1v-1.47a7.87,7.87,0,0,0-.62-3.6,2.13,2.13,0,0,0-2-1.13,5.79,5.79,0,0,0-3.09,1l-.67-1.22a7.19,7.19,0,0,1,3.86-1.14,3.58,3.58,0,0,1,3.14,1.37,8.31,8.31,0,0,1,1,4.6v12Zm-3.76-1a2.83,2.83,0,0,0,2.58-1.63,9.62,9.62,0,0,0,.92-4.64v-1.84l-1.84.1a4.63,4.63,0,0,0-3.17,1.18,4.3,4.3,0,0,0-1,3.12,4.72,4.72,0,0,0,.68,2.82A2.21,2.21,0,0,0,967.67,130.58Z" transform="translate(-80.5 -106.24)"/><path d="M977.13,109a1.89,1.89,0,0,1,.3-1.14.93.93,0,0,1,.78-.41.81.81,0,0,1,.7.41,2.14,2.14,0,0,1,.26,1.14,2.07,2.07,0,0,1-.26,1.11.8.8,0,0,1-.7.42.92.92,0,0,1-.78-.42A1.83,1.83,0,0,1,977.13,109Zm1.78,22.57h-1.55V113.91h1.55Z" transform="translate(-80.5 -106.24)"/><path d="M991.61,131.58V119.4q0-4.4-2.61-4.4a3.11,3.11,0,0,0-2.91,1.65,11.18,11.18,0,0,0-.92,5.22v9.71h-1.54V113.91h1.3l.13,2.46h.15a4.65,4.65,0,0,1,1.59-2.07,3.81,3.81,0,0,1,2.23-.73,3.6,3.6,0,0,1,3.08,1.37,7.51,7.51,0,0,1,1,4.42v12.22Z" transform="translate(-80.5 -106.24)"/><path d="M1001,130.47a3.76,3.76,0,0,0,1.27-.2v1.31a4.57,4.57,0,0,1-1.84.32q-2.73,0-2.73-4.08V115.28h-1.6v-.91l1.57-.46.5-4.2h1.08v4.2h2.8v1.37h-2.8v12.1a5.26,5.26,0,0,0,.39,2.44A1.46,1.46,0,0,0,1001,130.47Z" transform="translate(-80.5 -106.24)"/><path d="M1004.88,109a1.89,1.89,0,0,1,.3-1.14.93.93,0,0,1,.77-.41.8.8,0,0,1,.7.41,2,2,0,0,1,.26,1.14,2,2,0,0,1-.26,1.11.79.79,0,0,1-.7.42.91.91,0,0,1-.77-.42A1.83,1.83,0,0,1,1004.88,109Zm1.77,22.57h-1.55V113.91h1.55Z" transform="translate(-80.5 -106.24)"/><path d="M1019.35,131.58V119.4q0-4.4-2.6-4.4a3.09,3.09,0,0,0-2.91,1.65,11.18,11.18,0,0,0-.92,5.22v9.71h-1.55V113.91h1.31l.13,2.46h.14a4.6,4.6,0,0,1,1.6-2.07,3.79,3.79,0,0,1,2.23-.73,3.62,3.62,0,0,1,3.08,1.37,7.52,7.52,0,0,1,1,4.42v12.22Z" transform="translate(-80.5 -106.24)"/><path d="M1034.79,113.91V115l-2.41.28a5.1,5.1,0,0,1,.8,1.81,9.85,9.85,0,0,1,.31,2.42,6.87,6.87,0,0,1-1.17,4.17,3.63,3.63,0,0,1-3.07,1.6h-.39l-.34,0a6.2,6.2,0,0,0-1.23,1.11,2,2,0,0,0-.45,1.29,1.35,1.35,0,0,0,.59,1.16,2.67,2.67,0,0,0,1.58.42h1.11a5.12,5.12,0,0,1,3.66,1.22,4.59,4.59,0,0,1,1.3,3.53,5.12,5.12,0,0,1-1.75,4.1,6.79,6.79,0,0,1-4.62,1.52,5.17,5.17,0,0,1-3.67-1.21,4.58,4.58,0,0,1-1.29-3.5,4.73,4.73,0,0,1,.85-2.84,5.45,5.45,0,0,1,2.65-1.86,3.3,3.3,0,0,1-1.31-1,2.37,2.37,0,0,1-.5-1.51,2.18,2.18,0,0,1,.53-1.43,9.19,9.19,0,0,1,1.51-1.34,4.23,4.23,0,0,1-2-2,7.22,7.22,0,0,1-.69-3.26,7.38,7.38,0,0,1,1.19-4.44,3.81,3.81,0,0,1,3.26-1.63,4.4,4.4,0,0,1,1.85.34Zm-9.51,20.84a3.72,3.72,0,0,0,.87,2.62,3.41,3.41,0,0,0,2.63.95,5,5,0,0,0,3.46-1.14,4,4,0,0,0,1.28-3.13,3.33,3.33,0,0,0-.87-2.46,3.4,3.4,0,0,0-2.53-.88H1029a3.5,3.5,0,0,0-2.65,1.12A4.09,4.09,0,0,0,1025.28,134.75Zm1-15.08a5.66,5.66,0,0,0,.8,3.29,2.49,2.49,0,0,0,2.12,1.11c1.88,0,2.83-1.52,2.83-4.56a6.73,6.73,0,0,0-.73-3.43,2.29,2.29,0,0,0-2.1-1.24,2.37,2.37,0,0,0-2.17,1.27A7,7,0,0,0,1026.24,119.67Z" transform="translate(-80.5 -106.24)"/><path d="M990,171.6v-12q0-4.44-2.61-4.44a2.7,2.7,0,0,0-2.58,1.55,10.43,10.43,0,0,0-.79,4.59V171.6h-1.53v-12a6.76,6.76,0,0,0-.64-3.34,2.1,2.1,0,0,0-2-1.1,2.66,2.66,0,0,0-2.55,1.59,12.22,12.22,0,0,0-.8,5.18v9.71h-1.55V153.93h1.3l.14,2.46h.14q1.07-2.8,3.6-2.8a3.26,3.26,0,0,1,2.31.78,4.45,4.45,0,0,1,1.22,2.28,5.39,5.39,0,0,1,1.57-2.35,3.81,3.81,0,0,1,2.41-.71,3.18,3.18,0,0,1,2.93,1.53,9.92,9.92,0,0,1,.93,4.93V171.6Z" transform="translate(-80.5 -106.24)"/><path d="M1006.1,162.72a13.49,13.49,0,0,1-1.41,6.83,4.44,4.44,0,0,1-4,2.37,4.33,4.33,0,0,1-4-2.37,13.73,13.73,0,0,1-1.38-6.83q0-9.14,5.4-9.13a4.37,4.37,0,0,1,4,2.39A13.25,13.25,0,0,1,1006.1,162.72Zm-9.17,0a14.17,14.17,0,0,0,.91,5.78,3,3,0,0,0,2.85,2q3.79,0,3.8-7.74t-3.8-7.67a3,3,0,0,0-2.87,1.92A14.34,14.34,0,0,0,996.93,162.72Z" transform="translate(-80.5 -106.24)"/><path d="M1014.3,171.92q-5.13,0-5.14-9.13a14.55,14.55,0,0,1,1.29-6.85,4.19,4.19,0,0,1,6-1.67,5,5,0,0,1,1.7,1.89h.13l-.07-2v-7.93h1.55V171.6h-1.27l-.13-2.48h-.15a5.27,5.27,0,0,1-1.64,2.08A3.92,3.92,0,0,1,1014.3,171.92Zm.1-1.35a3.14,3.14,0,0,0,2.86-1.72,10.17,10.17,0,0,0,1-5v-1a13.3,13.3,0,0,0-1-5.87,3.13,3.13,0,0,0-2.95-1.87,2.84,2.84,0,0,0-2.74,2,15.69,15.69,0,0,0-.83,5.77,15.11,15.11,0,0,0,.86,5.78A2.9,2.9,0,0,0,1014.4,170.57Z" transform="translate(-80.5 -106.24)"/><path d="M1029.55,171.92a4.8,4.8,0,0,1-4.31-2.38,12.39,12.39,0,0,1-1.51-6.66,14.28,14.28,0,0,1,1.35-6.91,4.21,4.21,0,0,1,3.86-2.38,3.87,3.87,0,0,1,3.47,2.09,10.76,10.76,0,0,1,1.27,5.64v1.43h-8.37a12.59,12.59,0,0,0,1.09,5.78,3.46,3.46,0,0,0,3.21,1.93,6.89,6.89,0,0,0,3.5-1.1v1.5A6.59,6.59,0,0,1,1029.55,171.92Zm-.7-16.93q-3.19,0-3.5,6.36h6.78a10.25,10.25,0,0,0-.88-4.64A2.67,2.67,0,0,0,1028.85,155Z" transform="translate(-80.5 -106.24)"/><path d="M682.66,119.45q0,12.12-7.58,12.13h-4.23V107.77h4.33a6.22,6.22,0,0,1,5.58,3C682,112.72,682.66,115.62,682.66,119.45Zm-1.68.09c0-3.35-.5-5.91-1.48-7.67a4.76,4.76,0,0,0-4.38-2.63h-2.67v20.87H675a4.81,4.81,0,0,0,4.54-2.7Q681,124.71,681,119.54Z" transform="translate(-80.5 -106.24)"/><path d="M691.82,131.9a4.79,4.79,0,0,1-4.3-2.38,12.38,12.38,0,0,1-1.51-6.65,14.43,14.43,0,0,1,1.34-6.92,4.23,4.23,0,0,1,3.87-2.38,3.9,3.9,0,0,1,3.47,2.09A10.81,10.81,0,0,1,696,121.3v1.44h-8.37a12.65,12.65,0,0,0,1.09,5.78,3.45,3.45,0,0,0,3.21,1.92,7,7,0,0,0,3.5-1.09v1.49A6.6,6.6,0,0,1,691.82,131.9Zm-.7-16.93q-3.18,0-3.5,6.36h6.79a10.25,10.25,0,0,0-.88-4.64A2.69,2.69,0,0,0,691.12,115Z" transform="translate(-80.5 -106.24)"/><path d="M701.43,131.58h-1.55V106.24h1.55Z" transform="translate(-80.5 -106.24)"/><path d="M711.17,131.9a4.8,4.8,0,0,1-4.31-2.38,12.47,12.47,0,0,1-1.51-6.65A14.3,14.3,0,0,1,706.7,116a4.21,4.21,0,0,1,3.87-2.38,3.89,3.89,0,0,1,3.46,2.09,10.81,10.81,0,0,1,1.27,5.64v1.44h-8.37a12.63,12.63,0,0,0,1.1,5.78,3.43,3.43,0,0,0,3.2,1.92,6.94,6.94,0,0,0,3.5-1.09v1.49A6.57,6.57,0,0,1,711.17,131.9Zm-.7-16.93q-3.19,0-3.5,6.36h6.79a10.24,10.24,0,0,0-.89-4.64A2.67,2.67,0,0,0,710.47,115Z" transform="translate(-80.5 -106.24)"/><path d="M722.47,130.47a3.8,3.8,0,0,0,1.27-.2v1.31a4.6,4.6,0,0,1-1.84.32c-1.82,0-2.74-1.36-2.74-4.08V115.28h-1.59v-.91l1.56-.46.51-4.2h1.07v4.2h2.8v1.37h-2.8v12.1a5.26,5.26,0,0,0,.39,2.44A1.48,1.48,0,0,0,722.47,130.47Z" transform="translate(-80.5 -106.24)"/><path d="M731.55,131.9a4.79,4.79,0,0,1-4.3-2.38,12.38,12.38,0,0,1-1.51-6.65,14.43,14.43,0,0,1,1.34-6.92,4.23,4.23,0,0,1,3.87-2.38,3.9,3.9,0,0,1,3.47,2.09,10.81,10.81,0,0,1,1.27,5.64v1.44h-8.37a12.65,12.65,0,0,0,1.09,5.78,3.45,3.45,0,0,0,3.21,1.92,7,7,0,0,0,3.5-1.09v1.49A6.6,6.6,0,0,1,731.55,131.9Zm-.7-16.93q-3.18,0-3.5,6.36h6.79a10.25,10.25,0,0,0-.88-4.64A2.69,2.69,0,0,0,730.85,115Z" transform="translate(-80.5 -106.24)"/><path d="M680.56,162.72a13.49,13.49,0,0,1-1.41,6.83,4.45,4.45,0,0,1-4,2.37,4.35,4.35,0,0,1-4-2.37,13.74,13.74,0,0,1-1.37-6.83q0-9.14,5.4-9.13a4.38,4.38,0,0,1,4,2.39A13.36,13.36,0,0,1,680.56,162.72Zm-9.17,0a14.17,14.17,0,0,0,.91,5.78,3,3,0,0,0,2.85,2q3.79,0,3.79-7.74t-3.79-7.67a3,3,0,0,0-2.87,1.92A14.17,14.17,0,0,0,671.39,162.72Z" transform="translate(-80.5 -106.24)"/><path d="M692.43,171.6V159.42c0-2.94-.87-4.4-2.61-4.4a3.12,3.12,0,0,0-2.91,1.64,11.26,11.26,0,0,0-.92,5.23v9.71h-1.54V153.93h1.3l.13,2.46H686a4.65,4.65,0,0,1,1.59-2.07,3.81,3.81,0,0,1,2.23-.73,3.58,3.58,0,0,1,3.08,1.37,7.51,7.51,0,0,1,1,4.42V171.6Z" transform="translate(-80.5 -106.24)"/><path d="M703.63,171.92a4.81,4.81,0,0,1-4.31-2.38,12.49,12.49,0,0,1-1.5-6.66,14.29,14.29,0,0,1,1.34-6.91,4.21,4.21,0,0,1,3.87-2.38,3.87,3.87,0,0,1,3.46,2.09,10.76,10.76,0,0,1,1.27,5.64v1.43H699.4a12.46,12.46,0,0,0,1.09,5.78,3.44,3.44,0,0,0,3.2,1.93,6.86,6.86,0,0,0,3.5-1.1v1.5A6.54,6.54,0,0,1,703.63,171.92Zm-.7-16.93q-3.2,0-3.5,6.36h6.79a10.24,10.24,0,0,0-.89-4.64A2.67,2.67,0,0,0,702.93,155Z" transform="translate(-80.5 -106.24)"/><path d="M722.5,171.92a4.36,4.36,0,0,1-4-2.3,13.75,13.75,0,0,1-1.34-6.77,14,14,0,0,1,1.36-6.89,4.36,4.36,0,0,1,4-2.37,5.64,5.64,0,0,1,2.74.6l-.6,1.37a4.81,4.81,0,0,0-2-.51q-3.88,0-3.89,7.77t3.89,7.7a7,7,0,0,0,2.51-.52v1.3a4.74,4.74,0,0,1-1.32.46A6.61,6.61,0,0,1,722.5,171.92Z" transform="translate(-80.5 -106.24)"/><path d="M729.78,153.93v11.53a8.67,8.67,0,0,0,.63,3.82,2,2,0,0,0,1.93,1.21,3.17,3.17,0,0,0,2.94-1.62,11,11,0,0,0,.93-5.24v-9.7h1.53V171.6h-1.3l-.2-2.48h-.13a4.75,4.75,0,0,1-1.58,2.08,3.68,3.68,0,0,1-2.19.72,3.44,3.44,0,0,1-3.12-1.51,9.37,9.37,0,0,1-1-4.95V153.93Z" transform="translate(-80.5 -106.24)"/><path d="M747.94,153.62q5.17,0,5.17,9.1a14.56,14.56,0,0,1-1.28,6.85,4.13,4.13,0,0,1-6,1.65,5.26,5.26,0,0,1-1.72-2.07H744l-.22,2.45h-1.27V146.26H744v7.86l-.06,2.14h.13A4.27,4.27,0,0,1,747.94,153.62Zm-.07,1.43a3.09,3.09,0,0,0-3,1.79,14,14,0,0,0-.91,5.88v.41q0,7.4,3.93,7.39a2.84,2.84,0,0,0,2.67-1.9,14.59,14.59,0,0,0,.89-5.9,14.8,14.8,0,0,0-.86-5.75A2.89,2.89,0,0,0,747.87,155.05Z" transform="translate(-80.5 -106.24)"/><path d="M762,171.92a4.81,4.81,0,0,1-4.31-2.38,12.49,12.49,0,0,1-1.5-6.66,14.41,14.41,0,0,1,1.34-6.91,4.23,4.23,0,0,1,3.87-2.38,3.89,3.89,0,0,1,3.47,2.09,10.86,10.86,0,0,1,1.27,5.64v1.43h-8.37a12.46,12.46,0,0,0,1.09,5.78,3.44,3.44,0,0,0,3.21,1.93,6.92,6.92,0,0,0,3.5-1.1v1.5A6.6,6.6,0,0,1,762,171.92Zm-.7-16.93c-2.13,0-3.29,2.12-3.5,6.36h6.79a10.24,10.24,0,0,0-.89-4.64A2.67,2.67,0,0,0,761.32,155Z" transform="translate(-80.5 -106.24)"/><line class="cls-1" x1="1313.71" y1="607.26" x2="1313.71" y2="554.76"/><path d="M1383.15,721.77h1.63l-5.06,23.81h-1.94l-3.63-17.82c-.07-.29-.26-1.59-.57-3.89l-.23,1.55-.37,2.31-3.57,17.85h-1.89l-5.11-23.81h1.67l3.36,16.4q.78,4,1,5.6c.24-1.74.55-3.58.93-5.54l3.33-16.46h1.81l3.32,16.4c.35,1.78.6,3.24.75,4.39l.17,1.21q.46-3.43.92-5.6Z" transform="translate(-80.5 -106.24)"/><path d="M1387.09,723a1.89,1.89,0,0,1,.3-1.14,1,1,0,0,1,.78-.41.8.8,0,0,1,.7.41,2.14,2.14,0,0,1,.26,1.14,2.07,2.07,0,0,1-.26,1.11.79.79,0,0,1-.7.42.93.93,0,0,1-.78-.42A1.83,1.83,0,0,1,1387.09,723Zm1.78,22.57h-1.55V727.91h1.55Z" transform="translate(-80.5 -106.24)"/><path d="M1397.91,745.9q-5.16,0-5.15-9.13a14.55,14.55,0,0,1,1.29-6.85,4.08,4.08,0,0,1,3.79-2.35,4.2,4.2,0,0,1,2.26.68,5,5,0,0,1,1.7,1.89h.13l-.07-2v-7.93h1.55v25.34h-1.27l-.13-2.48h-.15a5.2,5.2,0,0,1-1.64,2.08A3.91,3.91,0,0,1,1397.91,745.9Zm.09-1.35a3.14,3.14,0,0,0,2.86-1.72,10.17,10.17,0,0,0,1-5.05v-1a13.3,13.3,0,0,0-1-5.87,3.13,3.13,0,0,0-3-1.87,2.84,2.84,0,0,0-2.74,2,15.69,15.69,0,0,0-.83,5.77,14.88,14.88,0,0,0,.87,5.78A2.87,2.87,0,0,0,1398,744.55Z" transform="translate(-80.5 -106.24)"/><path d="M1411.37,744.47a3.8,3.8,0,0,0,1.27-.2v1.31a4.6,4.6,0,0,1-1.84.32q-2.73,0-2.73-4.08V729.28h-1.6v-.91l1.56-.46.51-4.2h1.07v4.2h2.8v1.37h-2.8v12.1a5.26,5.26,0,0,0,.39,2.44A1.48,1.48,0,0,0,1411.37,744.47Z" transform="translate(-80.5 -106.24)"/><path d="M1423.42,745.58V733.4a6.73,6.73,0,0,0-.63-3.4,2.2,2.2,0,0,0-2-1,3,3,0,0,0-2.82,1.66,11.07,11.07,0,0,0-.94,5.24v9.68h-1.55V720.24H1417v8.22c0,.75,0,1.38-.07,1.88h.13a4.43,4.43,0,0,1,1.58-2.05,3.82,3.82,0,0,1,2.19-.72A3.52,3.52,0,0,1,1424,729a8.18,8.18,0,0,1,.94,4.37v12.18Z" transform="translate(-80.5 -106.24)"/><path d="M1207.45,222.17v10.41h-1.6V208.77h3.26q3.48,0,5.09,1.65a6.71,6.71,0,0,1,1.62,4.91,8.43,8.43,0,0,1-.88,4.07,5.41,5.41,0,0,1-3,2.4l4.72,10.78h-1.79l-4.45-10.41Zm0-1.46h2.23a4.23,4.23,0,0,0,3.34-1.34,5.86,5.86,0,0,0,1.17-4,5.32,5.32,0,0,0-1.2-3.88,5.18,5.18,0,0,0-3.77-1.19h-1.77Z" transform="translate(-80.5 -106.24)"/><path d="M1224.79,232.9a4.8,4.8,0,0,1-4.31-2.38,12.47,12.47,0,0,1-1.51-6.65,14.3,14.3,0,0,1,1.35-6.92,4.21,4.21,0,0,1,3.87-2.38,3.89,3.89,0,0,1,3.46,2.09,10.81,10.81,0,0,1,1.27,5.64v1.44h-8.37a12.63,12.63,0,0,0,1.1,5.78,3.43,3.43,0,0,0,3.2,1.92,6.94,6.94,0,0,0,3.5-1.09v1.49A6.57,6.57,0,0,1,1224.79,232.9Zm-.7-16.93q-3.19,0-3.5,6.36h6.79a10.24,10.24,0,0,0-.89-4.64A2.67,2.67,0,0,0,1224.09,216Z" transform="translate(-80.5 -106.24)"/><path d="M1237.16,232.9q-5.15,0-5.14-9.13a14.69,14.69,0,0,1,1.28-6.85,4.19,4.19,0,0,1,6-1.67,4.94,4.94,0,0,1,1.7,1.89h.14l-.07-2v-7.93h1.55v25.34h-1.27l-.13-2.48h-.15a5.2,5.2,0,0,1-1.64,2.08A3.92,3.92,0,0,1,1237.16,232.9Zm.1-1.35a3.14,3.14,0,0,0,2.86-1.72,10.17,10.17,0,0,0,1-5.05v-1a13.3,13.3,0,0,0-1-5.87,3.13,3.13,0,0,0-3-1.87,2.84,2.84,0,0,0-2.74,2,15.69,15.69,0,0,0-.83,5.77,15.11,15.11,0,0,0,.86,5.78A2.9,2.9,0,0,0,1237.26,231.55Z" transform="translate(-80.5 -106.24)"/><line class="cls-1" x1="1648.71" y1="607.26" x2="1648.71" y2="554.76"/><path d="M1711.66,733.45q0,12.12-7.58,12.13h-4.23V721.77h4.33a6.22,6.22,0,0,1,5.58,3C1711,726.72,1711.66,729.62,1711.66,733.45Zm-1.68.09c0-3.35-.5-5.91-1.48-7.67a4.76,4.76,0,0,0-4.38-2.63h-2.67v20.87H1704a4.81,4.81,0,0,0,4.54-2.7Q1710,738.71,1710,733.54Z" transform="translate(-80.5 -106.24)"/><path d="M1720.82,745.9a4.79,4.79,0,0,1-4.3-2.38,12.38,12.38,0,0,1-1.51-6.65,14.43,14.43,0,0,1,1.34-6.92,4.23,4.23,0,0,1,3.87-2.38,3.9,3.9,0,0,1,3.47,2.09,10.81,10.81,0,0,1,1.27,5.64v1.44h-8.37a12.52,12.52,0,0,0,1.09,5.78,3.45,3.45,0,0,0,3.21,1.92,7,7,0,0,0,3.5-1.09v1.49A6.6,6.6,0,0,1,1720.82,745.9Zm-.7-16.93q-3.18,0-3.5,6.36h6.79a10.25,10.25,0,0,0-.88-4.64A2.69,2.69,0,0,0,1720.12,729Z" transform="translate(-80.5 -106.24)"/><path d="M1734.57,745.9a4.25,4.25,0,0,1-2.44-.74,4.65,4.65,0,0,1-1.67-2h-.14l.11,1.94v8.52h-1.55V727.91h1.27l.17,2.43h.14a5.34,5.34,0,0,1,1.67-2.06,3.84,3.84,0,0,1,2.23-.71q5.17,0,5.17,9.13a14.77,14.77,0,0,1-1.27,6.81A4,4,0,0,1,1734.57,745.9Zm-.31-16.87a3.07,3.07,0,0,0-2.88,1.71,11.55,11.55,0,0,0-1,5.36v.5a14.06,14.06,0,0,0,1,6,3.12,3.12,0,0,0,2.93,1.91,2.87,2.87,0,0,0,2.71-1.89,14.79,14.79,0,0,0,.89-5.91,15.32,15.32,0,0,0-.83-5.75A2.88,2.88,0,0,0,1734.26,729Z" transform="translate(-80.5 -106.24)"/><path d="M1746.67,744.47a3.85,3.85,0,0,0,1.27-.2v1.31a4.64,4.64,0,0,1-1.84.32q-2.74,0-2.74-4.08V729.28h-1.6v-.91l1.57-.46.5-4.2h1.08v4.2h2.8v1.37h-2.8v12.1a5.26,5.26,0,0,0,.39,2.44A1.46,1.46,0,0,0,1746.67,744.47Z" transform="translate(-80.5 -106.24)"/><path d="M1758.71,745.58V733.4a6.75,6.75,0,0,0-.62-3.4,2.23,2.23,0,0,0-2-1,3,3,0,0,0-2.81,1.66,11,11,0,0,0-1,5.24v9.68h-1.54V720.24h1.54v8.22c0,.75,0,1.38-.06,1.88h.13a4.41,4.41,0,0,1,1.57-2.05,3.82,3.82,0,0,1,2.19-.72,3.51,3.51,0,0,1,3.19,1.46,8.17,8.17,0,0,1,1,4.37v12.18Z" transform="translate(-80.5 -106.24)"/><path class="cls-2" d="M1519,634c0,14.91,19.25,27,43,27s43-12.09,43-27" transform="translate(-80.5 -106.24)"/><line class="cls-1" x1="1482" y1="630.76" x2="1482" y2="554.76"/><path d="M1539.64,774.58H1538V762.87h-8.3v11.71h-1.6V750.77h1.6v10.57h8.3V750.77h1.6Z" transform="translate(-80.5 -106.24)"/><path d="M1549.62,774.9a4.81,4.81,0,0,1-4.31-2.38,12.48,12.48,0,0,1-1.5-6.65,14.43,14.43,0,0,1,1.34-6.92,4.23,4.23,0,0,1,3.87-2.38,3.91,3.91,0,0,1,3.47,2.09,10.91,10.91,0,0,1,1.27,5.64v1.44h-8.37a12.52,12.52,0,0,0,1.09,5.78,3.43,3.43,0,0,0,3.21,1.92,7,7,0,0,0,3.5-1.09v1.49A6.6,6.6,0,0,1,1549.62,774.9Zm-.7-16.93c-2.13,0-3.29,2.12-3.5,6.36h6.79a10.24,10.24,0,0,0-.89-4.64A2.67,2.67,0,0,0,1548.92,758Z" transform="translate(-80.5 -106.24)"/><path d="M1557.45,752a1.89,1.89,0,0,1,.3-1.14,1,1,0,0,1,.78-.41.81.81,0,0,1,.7.41,2.14,2.14,0,0,1,.26,1.14,2.07,2.07,0,0,1-.26,1.11.8.8,0,0,1-.7.42.93.93,0,0,1-.78-.42A1.83,1.83,0,0,1,1557.45,752Zm1.78,22.57h-1.55V756.91h1.55Z" transform="translate(-80.5 -106.24)"/><path d="M1573.2,756.91V758l-2.41.28a5.1,5.1,0,0,1,.8,1.81,9.85,9.85,0,0,1,.31,2.42,6.87,6.87,0,0,1-1.17,4.17,3.63,3.63,0,0,1-3.07,1.6h-.39l-.34,0a6.2,6.2,0,0,0-1.23,1.11,2,2,0,0,0-.45,1.29,1.35,1.35,0,0,0,.59,1.16,2.67,2.67,0,0,0,1.58.42h1.11a5.12,5.12,0,0,1,3.66,1.22,4.59,4.59,0,0,1,1.3,3.53,5.12,5.12,0,0,1-1.75,4.1,6.78,6.78,0,0,1-4.61,1.52,5.18,5.18,0,0,1-3.68-1.21,4.58,4.58,0,0,1-1.29-3.5A4.73,4.73,0,0,1,1563,775a5.5,5.5,0,0,1,2.65-1.86,3.3,3.3,0,0,1-1.31-1,2.37,2.37,0,0,1-.5-1.51,2.18,2.18,0,0,1,.53-1.43,9.19,9.19,0,0,1,1.51-1.34,4.23,4.23,0,0,1-2.05-2,7.22,7.22,0,0,1-.69-3.26,7.38,7.38,0,0,1,1.19-4.44,3.81,3.81,0,0,1,3.26-1.63,4.37,4.37,0,0,1,1.85.34Zm-9.51,20.84a3.72,3.72,0,0,0,.87,2.62,3.41,3.41,0,0,0,2.63,1,5,5,0,0,0,3.46-1.14,4,4,0,0,0,1.28-3.13,3.33,3.33,0,0,0-.87-2.46,3.4,3.4,0,0,0-2.53-.88h-1.14a3.5,3.5,0,0,0-2.65,1.12A4.09,4.09,0,0,0,1563.69,777.75Zm1-15.08a5.66,5.66,0,0,0,.8,3.29,2.49,2.49,0,0,0,2.12,1.11c1.88,0,2.83-1.52,2.83-4.56a6.73,6.73,0,0,0-.73-3.43,2.29,2.29,0,0,0-2.1-1.24,2.37,2.37,0,0,0-2.17,1.27A7,7,0,0,0,1564.65,762.67Z" transform="translate(-80.5 -106.24)"/><path d="M1584,774.58V762.4a6.73,6.73,0,0,0-.63-3.4,2.22,2.22,0,0,0-2-1,3,3,0,0,0-2.82,1.66,11,11,0,0,0-1,5.24v9.68H1576V749.24h1.54v8.22c0,.75,0,1.38-.06,1.88h.13a4.41,4.41,0,0,1,1.57-2.05,3.82,3.82,0,0,1,2.19-.72,3.51,3.51,0,0,1,3.19,1.46,8.17,8.17,0,0,1,1,4.37v12.18Z" transform="translate(-80.5 -106.24)"/><path d="M1593.42,773.47a3.8,3.8,0,0,0,1.27-.2v1.31a4.57,4.57,0,0,1-1.84.32q-2.73,0-2.73-4.08V758.28h-1.6v-.91l1.56-.46.51-4.2h1.08v4.2h2.8v1.37h-2.8v12.1a5.13,5.13,0,0,0,.39,2.44A1.46,1.46,0,0,0,1593.42,773.47Z" transform="translate(-80.5 -106.24)"/><path class="cls-2" d="M1687,634c0,14.91,19.25,27,43,27s43-12.09,43-27" transform="translate(-80.5 -106.24)"/><line class="cls-1" x1="965" y1="309.26" x2="965" y2="6.26"/><path class="cls-2" d="M1268.67,401.5c0-14.91-19.26-27-43-27s-43,12.09-43,27" transform="translate(-80.5 -106.24)"/><line class="cls-1" x1="1144.63" y1="137.26" x2="1144.63" y2="268.26"/><path d="M1371.06,221.08h5.21v11.26a15.4,15.4,0,0,1-5.65,1.06,6.82,6.82,0,0,1-6-3.25c-1.44-2.17-2.15-5.19-2.15-9s.74-6.86,2.22-9a7.16,7.16,0,0,1,6.24-3.19,9.3,9.3,0,0,1,5.1,1.53l-.77,1.4a8,8,0,0,0-4.33-1.43,5.58,5.58,0,0,0-5.05,2.74q-1.72,2.75-1.72,8t1.73,7.92a5.46,5.46,0,0,0,4.91,2.81,11.16,11.16,0,0,0,3.89-.6v-8.66h-3.59Z" transform="translate(-80.5 -106.24)"/><path d="M1385.38,215.07a4.84,4.84,0,0,1,1.55.23l-.37,1.54a3.18,3.18,0,0,0-1.21-.24,2.22,2.22,0,0,0-1.67.92,6.64,6.64,0,0,0-1.21,2.56,14.22,14.22,0,0,0-.44,3.63v9.37h-1.55V215.41h1.27l.17,3.09h.11C1382.86,216.21,1384,215.07,1385.38,215.07Z" transform="translate(-80.5 -106.24)"/><path d="M1394.6,233.4a4.81,4.81,0,0,1-4.31-2.38,12.48,12.48,0,0,1-1.5-6.65,14.43,14.43,0,0,1,1.34-6.92,4.23,4.23,0,0,1,3.87-2.38,3.91,3.91,0,0,1,3.47,2.09,10.91,10.91,0,0,1,1.27,5.64v1.44h-8.37a12.52,12.52,0,0,0,1.09,5.78,3.43,3.43,0,0,0,3.21,1.92,7,7,0,0,0,3.5-1.09v1.49A6.6,6.6,0,0,1,1394.6,233.4Zm-.7-16.93c-2.13,0-3.29,2.12-3.5,6.36h6.79a10.24,10.24,0,0,0-.89-4.64A2.67,2.67,0,0,0,1393.9,216.47Z" transform="translate(-80.5 -106.24)"/><path d="M1407.68,233.4a4.8,4.8,0,0,1-4.31-2.38,12.47,12.47,0,0,1-1.51-6.65,14.3,14.3,0,0,1,1.35-6.92,4.21,4.21,0,0,1,3.87-2.38,3.89,3.89,0,0,1,3.46,2.09,10.81,10.81,0,0,1,1.27,5.64v1.44h-8.37a12.63,12.63,0,0,0,1.1,5.78,3.43,3.43,0,0,0,3.2,1.92,6.94,6.94,0,0,0,3.5-1.09v1.49A6.57,6.57,0,0,1,1407.68,233.4Zm-.7-16.93q-3.2,0-3.5,6.36h6.79a10.24,10.24,0,0,0-.89-4.64A2.67,2.67,0,0,0,1407,216.47Z" transform="translate(-80.5 -106.24)"/><path d="M1423.72,233.08V220.9q0-4.4-2.61-4.4a3.11,3.11,0,0,0-2.91,1.65,11.18,11.18,0,0,0-.92,5.22v9.71h-1.54V215.41h1.3l.13,2.46h.15a4.65,4.65,0,0,1,1.59-2.07,3.81,3.81,0,0,1,2.23-.73,3.6,3.6,0,0,1,3.08,1.37,7.44,7.44,0,0,1,1,4.42v12.22Z" transform="translate(-80.5 -106.24)"/><path class="cls-2" d="M1437,402c0-14.91-19.25-27-43-27s-43,12.09-43,27" transform="translate(-80.5 -106.24)"/><line class="cls-1" x1="1313" y1="137.76" x2="1313" y2="268.76"/><path d="M1539.22,209.27h4.56a6,6,0,0,1,4.31,1.43,5.61,5.61,0,0,1,1.51,4.24c0,3.22-1.18,5.07-3.54,5.53v.13a4.74,4.74,0,0,1,3,1.82,6.61,6.61,0,0,1,1,3.88,7.9,7.9,0,0,1-1.41,5,4.79,4.79,0,0,1-4,1.79h-5.48Zm1.6,10.6h3a3.79,3.79,0,0,0,3.18-1.23,6.09,6.09,0,0,0,1-3.74,4.25,4.25,0,0,0-1-3.09,4.16,4.16,0,0,0-3.12-1.07h-3Zm0,1.47v10.27h3.66q3.94,0,3.94-5.34a5.26,5.26,0,0,0-1.15-3.65,4.12,4.12,0,0,0-3.24-1.28Z" transform="translate(-80.5 -106.24)"/><path d="M1555.3,233.08h-1.55V207.74h1.55Z" transform="translate(-80.5 -106.24)"/><path d="M1561.5,215.41v11.53a8.73,8.73,0,0,0,.63,3.83,2,2,0,0,0,1.93,1.2,3.17,3.17,0,0,0,2.94-1.62,11,11,0,0,0,.93-5.24v-9.7h1.53v17.67h-1.3l-.2-2.48h-.13a4.7,4.7,0,0,1-1.58,2.08,3.68,3.68,0,0,1-2.19.72,3.43,3.43,0,0,1-3.12-1.51,9.37,9.37,0,0,1-1-4.95V215.41Z" transform="translate(-80.5 -106.24)"/><path d="M1579.2,233.4a4.81,4.81,0,0,1-4.31-2.38,12.48,12.48,0,0,1-1.5-6.65,14.31,14.31,0,0,1,1.34-6.92,4.21,4.21,0,0,1,3.87-2.38,3.91,3.91,0,0,1,3.47,2.09,10.91,10.91,0,0,1,1.26,5.64v1.44H1575a12.52,12.52,0,0,0,1.09,5.78,3.43,3.43,0,0,0,3.2,1.92,7,7,0,0,0,3.51-1.09v1.49A6.6,6.6,0,0,1,1579.2,233.4Zm-.7-16.93q-3.2,0-3.5,6.36h6.79a10.24,10.24,0,0,0-.89-4.64A2.67,2.67,0,0,0,1578.5,216.47Z" transform="translate(-80.5 -106.24)"/><path class="cls-2" d="M1604,402c0-14.91-19.25-27-43-27s-43,12.09-43,27" transform="translate(-80.5 -106.24)"/><line class="cls-1" x1="1480" y1="137.76" x2="1480" y2="268.76"/><path d="M426.53,131.58l-2.1-8.63h-5.78l-2.06,8.63h-1.67l5.74-23.81h1.64l5.86,23.81Zm-2.47-10.25-2.1-8.87c-.22-1-.39-1.94-.51-2.83a25.22,25.22,0,0,1-.45,2.83l-2,8.87Z" transform="translate(-80.5 -106.24)"/><path d="M434.84,131.9q-5.14,0-5.15-9.13a14.55,14.55,0,0,1,1.29-6.85,4.09,4.09,0,0,1,3.79-2.35,4.15,4.15,0,0,1,2.26.68,4.94,4.94,0,0,1,1.7,1.89h.13l-.06-2v-7.93h1.54v25.34h-1.27l-.13-2.48h-.14a5.3,5.3,0,0,1-1.65,2.08A3.87,3.87,0,0,1,434.84,131.9Zm.1-1.35a3.13,3.13,0,0,0,2.85-1.72,10.16,10.16,0,0,0,1-5.05v-1a13.45,13.45,0,0,0-1-5.87,3.14,3.14,0,0,0-3-1.87,2.82,2.82,0,0,0-2.73,2,15.48,15.48,0,0,0-.83,5.77,14.91,14.91,0,0,0,.86,5.78A2.89,2.89,0,0,0,434.94,130.55Z" transform="translate(-80.5 -106.24)"/><path d="M449.38,131.9q-5.14,0-5.15-9.13a14.55,14.55,0,0,1,1.29-6.85,4.09,4.09,0,0,1,3.79-2.35,4.15,4.15,0,0,1,2.26.68,4.94,4.94,0,0,1,1.7,1.89h.13l-.06-2v-7.93h1.54v25.34h-1.27l-.13-2.48h-.14a5.22,5.22,0,0,1-1.65,2.08A3.87,3.87,0,0,1,449.38,131.9Zm.1-1.35a3.14,3.14,0,0,0,2.86-1.72,10.28,10.28,0,0,0,1-5.05v-1a13.45,13.45,0,0,0-1-5.87,3.14,3.14,0,0,0-3-1.87,2.82,2.82,0,0,0-2.73,2,15.48,15.48,0,0,0-.83,5.77,14.91,14.91,0,0,0,.86,5.78A2.9,2.9,0,0,0,449.48,130.55Z" transform="translate(-80.5 -106.24)"/><path d="M370.08,162.72a13.49,13.49,0,0,1-1.41,6.83,4.44,4.44,0,0,1-4,2.37,4.34,4.34,0,0,1-4-2.37,13.73,13.73,0,0,1-1.38-6.83q0-9.14,5.41-9.13a4.37,4.37,0,0,1,4,2.39A13.25,13.25,0,0,1,370.08,162.72Zm-9.17,0a14.14,14.14,0,0,0,.92,5.78,3,3,0,0,0,2.84,2q3.79,0,3.8-7.74t-3.8-7.67A3,3,0,0,0,361.8,157,14.34,14.34,0,0,0,360.91,162.72Z" transform="translate(-80.5 -106.24)"/><path d="M382,171.6V159.42c0-2.94-.87-4.4-2.6-4.4a3.1,3.1,0,0,0-2.91,1.64,11.26,11.26,0,0,0-.92,5.23v9.71H374V153.93h1.3l.14,2.46h.14a4.6,4.6,0,0,1,1.6-2.07,3.79,3.79,0,0,1,2.23-.73,3.59,3.59,0,0,1,3.08,1.37,7.52,7.52,0,0,1,1,4.42V171.6Z" transform="translate(-80.5 -106.24)"/><path d="M393.15,171.92a4.79,4.79,0,0,1-4.3-2.38,12.39,12.39,0,0,1-1.51-6.66,14.41,14.41,0,0,1,1.34-6.91,4.23,4.23,0,0,1,3.87-2.38,3.88,3.88,0,0,1,3.47,2.09,10.76,10.76,0,0,1,1.27,5.64v1.43h-8.37a12.59,12.59,0,0,0,1.09,5.78,3.46,3.46,0,0,0,3.21,1.93,6.89,6.89,0,0,0,3.5-1.1v1.5A6.6,6.6,0,0,1,393.15,171.92Zm-.7-16.93q-3.18,0-3.5,6.36h6.79a10.25,10.25,0,0,0-.88-4.64A2.69,2.69,0,0,0,392.45,155Z" transform="translate(-80.5 -106.24)"/><path d="M412,171.92a4.35,4.35,0,0,1-4-2.3,13.64,13.64,0,0,1-1.34-6.77,14,14,0,0,1,1.36-6.89,4.35,4.35,0,0,1,4-2.37,5.57,5.57,0,0,1,2.73.6l-.6,1.37a4.77,4.77,0,0,0-2-.51c-2.6,0-3.89,2.59-3.89,7.77s1.29,7.7,3.89,7.7a7,7,0,0,0,2.51-.52v1.3a4.74,4.74,0,0,1-1.32.46A6.61,6.61,0,0,1,412,171.92Z" transform="translate(-80.5 -106.24)"/><path d="M419.31,153.93v11.53a8.7,8.7,0,0,0,.62,3.82,2,2,0,0,0,1.93,1.21,3.15,3.15,0,0,0,2.94-1.62,11,11,0,0,0,.94-5.24v-9.7h1.53V171.6H426l-.2-2.48h-.13a4.83,4.83,0,0,1-1.58,2.08,3.71,3.71,0,0,1-2.2.72,3.45,3.45,0,0,1-3.12-1.51,9.48,9.48,0,0,1-1-4.95V153.93Z" transform="translate(-80.5 -106.24)"/><path d="M437.46,153.62q5.18,0,5.18,9.1a14.55,14.55,0,0,1-1.29,6.85,4.12,4.12,0,0,1-6,1.65,5.28,5.28,0,0,1-1.73-2.07h-.13l-.21,2.45H432V146.26h1.55v7.86l-.07,2.14h.13A4.28,4.28,0,0,1,437.46,153.62Zm-.06,1.43a3.09,3.09,0,0,0-2.95,1.79,13.85,13.85,0,0,0-.91,5.88v.41c0,4.93,1.3,7.39,3.92,7.39a2.84,2.84,0,0,0,2.68-1.9,14.77,14.77,0,0,0,.89-5.9,14.58,14.58,0,0,0-.87-5.75A2.87,2.87,0,0,0,437.4,155.05Z" transform="translate(-80.5 -106.24)"/><path d="M451.55,171.92a4.8,4.8,0,0,1-4.31-2.38,12.39,12.39,0,0,1-1.51-6.66,14.28,14.28,0,0,1,1.35-6.91,4.21,4.21,0,0,1,3.86-2.38,3.87,3.87,0,0,1,3.47,2.09,10.76,10.76,0,0,1,1.27,5.64v1.43h-8.37a12.59,12.59,0,0,0,1.09,5.78,3.46,3.46,0,0,0,3.21,1.93,6.86,6.86,0,0,0,3.5-1.1v1.5A6.59,6.59,0,0,1,451.55,171.92Zm-.7-16.93q-3.19,0-3.5,6.36h6.79a10.24,10.24,0,0,0-.89-4.64A2.67,2.67,0,0,0,450.85,155Z" transform="translate(-80.5 -106.24)"/></svg>